<svg xmlns="http://www.w3.org/2000/svg" width="24" height="24" viewBox="0 0 24 24" fill="currentColor">
  <!-- Clipboard outline without internal lines -->
  <path d="M22 3v21h-20v-21h4.667l-2.667 2.808v16.192h16v-16.192l-2.609-2.808h4.609zm-3.646 4l-3.312-3.569v-.41c.001-1.668-1.352-3.021-3.021-3.021-1.667 0-3.021 1.332-3.021 3l.001.431-3.298 3.569h12.651zm-6.354-5c.552 0 1 .448 1 1s-.448 1-1 1-1-.448-1-1 .448-1 1-1z"/>
  <!-- Image icon placed on clipboard body -->
  <g transform="translate(6.2 9.1) scale(0.48)">
    <path d="M14 9l-2.519 4-2.481-1.96-5 6.96h16l-6-9zm8-5v16h-20v-16h20zm2-2h-24v20h24v-20zm-20 6c0-1.104.896-2 2-2s2 .896 2 2c0 1.105-.896 2-2 2s-2-.895-2-2z"/>
  </g>
</svg>
