<svg version="1.2" xmlns="http://www.w3.org/2000/svg" viewBox="0 0 24 24" width="24" height="24"><style></style><path  d="m2 7c0-0.5 0.4-1 1-1h14c0.6 0 1 0.5 1 1v14c0 0.6-0.5 1-1 1h-14c-0.5 0-1-0.4-1-1zm20 8v2c0 0.6-0.5 1-1 1h-2v-1.5h1.5v-1.5zm-13.4-5c-0.4 0-0.7 0.3-0.7 0.8 0 0.4 0.3 0.7 0.7 0.7h2.8l-4.4 4.4c-0.3 0.3-0.3 0.8 0 1.1 0.3 0.3 0.8 0.3 1.1 0l4.4-4.4v2.8c0 0.4 0.3 0.7 0.8 0.7 0.4 0 0.7-0.3 0.7-0.7 0 0 0-2.2 0-4.6 0-0.5-0.3-0.8-0.8-0.8-2.4 0-4.6 0-4.6 0zm11.9 0.6v3.4h1.5v-3.4zm0-4.6v3.6h1.5v-3.6zm-11.5-4v1.5h-1.5v1.5h-1.5v-2c0-0.5 0.4-1 1-1zm10 0h2c0.6 0 1 0.5 1 1v2h-1.5v-1.5h-1.5zm-4.5 1.5h3.5v-1.5h-3.5zm-4.5 0h3.5v-1.5h-3.5z"/></svg>